<svg width="15" height="20" viewBox="0 0 15 20" fill="none" xmlns="http://www.w3.org/2000/svg">
<path d="M4.32656 1.1275C2.21516 1.48527 -0.00187509 2.79558 0.525859 4.9398C0.636914 5.3907 0.921875 5.78945 1.27055 6.12933C1.27113 6.22613 1.27723 6.3205 1.29055 6.40914C1.3391 6.72957 1.36578 7.00632 1.36703 7.25664C1.10336 7.36621 0.462773 7.6071 0 7.56101C0 7.56101 0.524375 7.98039 1.2775 7.98281C1.15734 8.4107 0.910039 8.79574 0.496445 9.26851C0.0527734 9.77562 0.536211 10.063 0.734648 10.1822C0.933086 10.3012 1.05234 10.7776 0.853867 10.976C0.655429 11.1748 0.853867 11.2941 1.01262 11.413C1.1716 11.5323 0.845117 11.8628 1.01262 11.969C1.4493 12.2473 1.25082 12.7239 1.29059 13.0414C1.33035 13.3591 1.61742 13.8631 2.76019 13.478C4.58699 12.8626 5.26187 14.4709 5.69883 15.9008C6.1355 17.3304 4.17004 19.6533 4.17004 19.6533C3.33586 20.6064 7.20793 19.3556 8.75644 18.7599C9.60703 18.4328 11.5761 17.5091 11.0596 16.9729C11.0596 16.9729 10.0671 16.4367 9.53086 15.4241C9.14547 14.6958 8.99922 14.0886 8.96824 13.6525C9.70136 13.9557 10.6023 13.9487 11.6159 13.1603C19.1214 7.32249 12.2446 -3.51863 4.32656 1.1275Z" fill="#BD00FF"/>
</svg>
