<svg width="15" height="20" viewBox="0 0 15 20" fill="none" xmlns="http://www.w3.org/2000/svg">
<path fill-rule="evenodd" clip-rule="evenodd" d="M10.4173 8.31974C10.4123 8.31633 10.4073 8.31287 10.4024 8.30937C8.55068 7.03489 6.12544 7.03456 4.2735 8.30838C4.259 8.31865 4.2442 8.32853 4.22913 8.33802C3.6962 8.71348 3.23407 9.18589 2.86656 9.73281L2.86539 9.73449C1.43481 11.8535 1.71844 14.7113 3.5267 16.4955C5.36417 18.3059 8.18137 18.5786 10.3188 17.1626C11.1968 16.5814 11.8879 15.7459 12.3006 14.7589C12.7079 13.7831 12.8154 12.7042 12.6076 11.6638C12.398 10.6178 11.8847 9.66275 11.1383 8.92098C10.9152 8.69919 10.6743 8.4984 10.4173 8.31974ZM7.33719 14.5799C6.79709 14.5799 6.35922 14.1467 6.35922 13.6122V11.8059C6.35922 11.2714 6.79709 10.8382 7.33719 10.8382C7.87728 10.8382 8.31515 11.2714 8.31515 11.8059V13.6122C8.31515 14.1467 7.87728 14.5799 7.33719 14.5799Z" fill="#BD00FF"/>
<path fill-rule="evenodd" clip-rule="evenodd" d="M9.99152 5.91307C8.28399 5.25281 6.39047 5.2528 4.68297 5.91305L4.68301 4.76106L4.68283 4.74794C4.66161 3.19868 5.8716 1.96558 7.33725 1.93554C8.80277 1.96558 10.0127 3.19868 9.99152 4.74794V4.76106V5.91307ZM7.35205 0.000116123C9.94595 0.0388885 11.9773 2.19272 11.9475 4.76393V7.03958C12.1487 7.20126 12.3415 7.3736 12.5246 7.55563C13.5468 8.57145 14.2425 9.87229 14.5263 11.288C14.8086 12.7012 14.6631 14.169 14.1082 15.4983C13.5497 16.8336 12.6106 17.974 11.4066 18.7711C8.4891 20.7038 4.6395 20.3233 2.14608 17.8664C-0.327967 15.4253 -0.706584 11.5429 1.23783 8.66113C1.65033 8.04728 2.15275 7.50086 2.72699 7.03952V4.76717C2.69548 2.19453 4.7274 0.0389048 7.32245 0.000116123C7.33236 -3.87078e-05 7.34214 -3.87078e-05 7.35205 0.000116123ZM4.22913 8.33802C3.6962 8.71348 3.23407 9.18589 2.86656 9.73281L2.86539 9.73449C1.43481 11.8535 1.71844 14.7113 3.5267 16.4955C5.36417 18.3059 8.18137 18.5786 10.3188 17.1626C11.1968 16.5814 11.8879 15.7459 12.3006 14.7589C12.7079 13.7831 12.8154 12.7042 12.6076 11.6638C12.398 10.6178 11.8847 9.66275 11.1383 8.92098C10.9152 8.69919 10.6743 8.4984 10.4173 8.31974L10.4024 8.30937C8.55068 7.03489 6.12544 7.03456 4.2735 8.30838C4.259 8.31865 4.2442 8.32853 4.22913 8.33802Z" fill="#BD00FF"/>
</svg>
